<svg xmlns="http://www.w3.org/2000/svg" viewBox="0 0 1290 512">
<defs><clipPath id="sun-clip"><circle cx="256" cy="256" r="120"/></clipPath><clipPath id="halo-clip"><circle cx="256" cy="256" r="138"/></clipPath><clipPath id="iso-clip"><rect x="116" y="118" width="280" height="276"/></clipPath></defs>
<rect width="1290" height="512" fill="#1e1e2e"/>
<g transform="translate(-60,0.0)"><g clip-path="url(#iso-clip)">
<circle cx="256" cy="256" r="138" fill="#2d2d3f"/>
<g clip-path="url(#halo-clip)"><rect x="0" y="118" width="512" height="138" fill="#3a3a4e"/></g>
<g clip-path="url(#sun-clip)">
<circle cx="256" cy="256" r="120" fill="#f59e0b"/>
<path d="M136 312 Q 176 304 216 312 T 296 312 T 376 312 L 376 376 L 136 376 Z" fill="#d97706"/>
<path d="M116 244 Q256 312 388 244" fill="none" stroke="#b45309" stroke-width="32"/>
</g>
<path d="M116 238 Q256 302 388 238" fill="none" stroke="#e5e5e5" stroke-width="32"/>
<path d="M369 216 L396 228 L387 256 Z" fill="#9a9aae" stroke="#9a9aae" stroke-width="8" stroke-linejoin="round" transform="translate(2,3)"/>
<path d="M369 216 L396 228 L387 256 Z" fill="#e5e5e5" stroke="#e5e5e5" stroke-width="8" stroke-linejoin="round"/>
</g></g>
<path d="M416.00000000000006 309.57142857142856V159.57142857142856H441.7358921595983V309.57142857142856Z M472.2821480887277 309.57142857142856V203.66068812779017H496.3787493024554V215.60709054129464H500.0109078543527Q502.87161690848217 210.17495291573658 509.4126804896764 206.02318028041293Q515.9537440708706 201.87140764508928 526.9037126813616 201.87140764508928Q538.48583984375 201.87140764508928 545.5117209298271 206.50799778529574Q552.5376020159041 211.1445879255022 556.1429617745537 218.40350341796875H559.775120326451Q563.4179774693081 211.32137625558033 570.2483215332031 206.5963919503348Q577.0786655970983 201.87140764508928 589.5929303850446 201.87140764508928Q599.6000627790179 201.87140764508928 607.6170283726284 206.0874764578683Q615.6339939662389 210.3035452706473 620.3991764613561 218.65533883231026Q625.1643589564733 227.00713239397322 625.1643589564733 239.4518040248326V309.57142857142856H600.6391863141741V241.26788330078125Q600.6391863141741 232.06969778878346 595.7454637799945 227.26436941964283Q590.8517412458148 222.4590410505022 581.9964338030135 222.4590410505022Q572.2196873256139 222.4590410505022 566.602763584682 228.72687203543524Q560.98583984375 234.9947030203683 560.98583984375 246.71071951729908V309.57142857142856H536.460667201451V241.26788330078125Q536.460667201451 232.06969778878346 531.5669446672713 227.26436941964283Q526.6732221330916 222.4590410505022 517.8179146902902 222.4590410505022Q508.0411682128907 222.4590410505022 502.4242444719588 228.72687203543524Q496.80732073102683 234.9947030203683 496.80732073102683 246.71071951729908V309.57142857142856Z M655.4964338030135 352.4285714285714V203.66068812779017H679.5930350167412V217.60525512695312H683.2251935686385Q687.018040248326 210.97849818638392 695.0510537283762 205.81959315708704Q703.0840672084264 200.66068812779017 717.9286760602679 200.66068812779017Q730.9733058384487 200.66068812779017 741.9768720354352 207.01961408342635Q752.9804382324219 213.3785400390625 759.6420440673828 225.55532836914062Q766.3036499023438 237.73211669921875 766.3036499023438 254.97676740373882V258.2553492954799Q766.3036499023438 275.4625026157924 759.6607927594866 287.6580396379743Q753.0179356166295 299.85357666015625 742.0143694196429 306.2125026157924Q731.0108032226562 312.57142857142856 717.9286760602679 312.57142857142856Q707.98583984375 312.57142857142856 701.1876438685827 310.17143903459817Q694.3894478934152 307.77144949776783 690.2376752580915 303.99200221470426Q686.0859026227679 300.2125549316406 683.6537649972099 296.30721609933033H680.0216064453125V352.4285714285714ZM710.6857561383929 291.099853515625Q724.2285505022322 291.099853515625 732.9660164969309 282.48292977469305Q741.7034824916295 273.86600603376115 741.7034824916295 257.64998953683033V255.5821271623884Q741.7034824916295 239.3661106654576 732.8776223318919 230.74918692452567Q724.0517621721541 222.13226318359375 710.6857561383929 222.13226318359375Q697.3572474888393 222.13226318359375 688.5126386369977 230.74918692452567Q679.6680297851562 239.3661106654576 679.6680297851562 255.5821271623884V257.64998953683033Q679.6680297851562 273.86600603376115 688.5126386369977 282.48292977469305Q697.3572474888393 291.099853515625 710.6857561383929 291.099853515625Z M840.7785818917412 312.57142857142856Q824.8839416503907 312.57142857142856 812.8142961774554 305.82142857142856Q800.7446507045202 299.07142857142856 794.013399396624 286.76874869210377Q787.2821480887277 274.466068812779 787.2821480887277 257.90177263532365V255.33034406389507Q787.2821480887277 238.7285505022321 793.9250052315849 226.44461931501115Q800.567862374442 214.16068812779017 812.5116162981307 207.41068812779017Q824.4553702218193 200.66068812779017 840.1625235421318 200.66068812779017Q855.617893763951 200.66068812779017 867.1330762590682 207.47498430524553Q878.6482587541853 214.2892804827009 885.0768301827568 226.46071951729908Q891.5054016113281 238.6321585518973 891.5054016113281 254.84287806919642V263.64469255719865H812.1608973911831Q812.6269662039621 276.07315935407365 820.959958757673 283.5865064348493Q829.292951311384 291.099853515625 841.4857352120537 291.099853515625Q853.4053388323103 291.099853515625 859.2311989920481 285.8713030133929Q865.0570591517858 280.6427525111607 868.1052551269531 274.0052969796317L888.3393118722099 284.4518040248326Q885.3018144880023 290.2857142857143 879.6232430594308 296.85892595563615Q873.9446716308594 303.432137625558 864.5910949707031 308.0017830984933Q855.2375183105469 312.57142857142856 840.7785818917412 312.57142857142856ZM812.3751831054689 245.07672555106024H866.5891549246652Q865.7320120675224 234.51253400530135 858.5775909423828 228.32239859444755Q851.4231698172433 222.13226318359375 839.9857352120537 222.13226318359375Q828.2322213309152 222.13226318359375 821.1286969866071 228.32239859444755Q814.0251726422991 234.51253400530135 812.3751831054689 245.07672555106024Z M957.1143275669643 309.57142857142856Q946.9893014090402 309.57142857142856 940.8660583496094 303.42943681989397Q934.7428152901787 297.2874450683594 934.7428152901787 286.9213344029018V224.071533203125H906.9714704241072V203.66068812779017H934.7428152901787V169.61076136997767H959.2679879324777V203.66068812779017H989.6857561383929V224.071533203125H959.2679879324777V282.7320120675223Q959.2679879324777 289.16058349609375 965.3429827008929 289.16058349609375H986.5893641880581V309.57142857142856Z M1055.278581891741 311.3607090541295Q1043.074994768415 311.3607090541295 1033.716068812779 305.8508758544922Q1024.357142857143 300.3410426548549 1019.1205422537668 290.3633575439453Q1013.8839416503906 280.3856724330357 1013.8839416503906 267.0892595563616V203.66068812779017H1038.4091142926898V265.17138671875Q1038.4091142926898 278.0338265555245 1044.7706887381419 284.3150569370814Q1051.1322631835938 290.59628731863836 1062.6607927594866 290.59628731863836Q1075.726819719587 290.59628731863836 1083.2589154924665 281.9338160923549Q1090.791011265346 273.27134486607144 1090.791011265346 257.3232116699219V203.66068812779017H1115.3161839076452V309.57142857142856H1091.2195826939173V294.7054225376674H1087.5874241420202Q1084.791011265346 300.5875287737165 1077.4196036202566 305.974118913923Q1070.0481959751673 311.3607090541295 1055.278581891741 311.3607090541295Z M1190.294682094029 312.57142857142856Q1169.846444266183 312.57142857142856 1156.541981288365 303.57142857142856Q1143.2375183105469 294.57142857142856 1140.414306640625 277.14469255719865L1163.1340985979352 271.42857142857144Q1164.6715959821427 279.603524344308 1168.5072893415177 284.282961164202Q1172.3429827008927 288.96239798409596 1178.0054539271762 290.9525647844587Q1183.6679251534597 292.9427315848214 1190.294682094029 292.9427315848214Q1200.3232116699219 292.9427315848214 1205.4044211251394 289.2838265555245Q1210.485630580357 285.62492152622764 1210.485630580357 279.9464024135045Q1210.485630580357 274.23038591657365 1205.6562042236328 271.38307625906805Q1200.8267778669083 268.5357666015625 1190.9107404436384 266.7464861188616L1184.2357875279017 265.56256539481024Q1173.31791469029 263.4947030203683 1164.32861328125 259.78220040457586Q1155.3393118722097 256.06969778878346 1149.9366215297152 249.53933279854908Q1144.5339311872208 243.0089678083147 1144.5339311872208 232.77144949776783Q1144.5339311872208 217.32677786690846 1155.9366215297152 208.9937329973493Q1167.3393118722097 200.66068812779017 1185.971470424107 200.66068812779017Q1203.7571847098213 200.66068812779017 1215.3741607666016 208.6080082484654Q1226.9911368233816 216.55532836914062 1230.4840044294083 229.82494245256697L1207.6999162946427 236.63929094587053Q1205.9106358119418 227.74648611886158 1200.1731698172432 224.01793561662944Q1194.4357038225446 220.2893851143973 1185.971470424107 220.2893851143973Q1177.544734409877 220.2893851143973 1172.9483424595423 223.28668430873324Q1168.3519505092074 226.28398350306918 1168.3519505092074 231.71071951729908Q1168.3519505092074 237.45353480747767 1173.0126386369975 240.18030221121649Q1177.6733267647878 242.90706961495533 1185.6339939662387 244.3052760532924L1192.3089468819753 245.48919677734375Q1204.0839625767298 247.5570591517857 1213.627726963588 251.0552760532924Q1223.1714913504463 254.55349295479908 1228.7375706263952 260.9954637799944Q1234.3036499023438 267.4374346051897 1234.3036499023438 278.35530744280135Q1234.3036499023438 294.73211669921875 1222.3652452741348 303.65177263532365Q1210.4268406459262 312.57142857142856 1190.294682094029 312.57142857142856Z" fill="#e5e5e5"/>
</svg>